# xmcd
#
# Track frame offsets:
#	150
#	17030
#	33001
#	53418
#	72435
#	87795
#	104739
#	118836
#	133148
#	147461
#	158110
#	171263
#	190933
#	207528
#
# Disc length: 2948 seconds
#
# Revision: 1
# Processed by: cddbd v1.5.2PL0 Copyright (c) Steve Scherf et al.
# Submitted via: EasyCDDAExtractor 12.0.0.1
#
DISCID=cb0b820e
DTITLE=Andrew Lloyd Webber - The Magical Music [CD3)
DYEAR=2002
DGENRE=Musical
TTITLE0=I Don't Know How To Love Him - Jesus Christ Superstar
TTITLE1=The First Man You Remember - Aspects Of Love
TTITLE2=All I Ask Of You - The Phantom Of The Opera
TTITLE3=There's Me - Starlight Express
TTITLE4=Half A Moment - By Jeeves
TTITLE5=The Last Man In My Life - Song And Dance
TTITLE6=Wishing You Were Somehow Here Again - The Phantom Of The Opera
TTITLE7=Anything But Lonely - Aspects Of Love
TTITLE8=Unexpected Song - Song And Dance
TTITLE9=Only You - Starlight Express
TTITLE10=There Is More To Love - Aspects Of Love
TTITLE11=Too Much In Love To Care - Sunset Boulevard
TTITLE12=Our Kind Of Love - The Beautiful Game
TTITLE13=Love Changes Everything - Aspects Of Love
EXTD=YEAR: 2002
EXTT0=
EXTT1=
EXTT2=
EXTT3=
EXTT4=
EXTT5=
EXTT6=
EXTT7=
EXTT8=
EXTT9=
EXTT10=
EXTT11=
EXTT12=
EXTT13=
PLAYORDER=
